<svg width="138" height="45" viewBox="0 0 138 45" fill="none" xmlns="http://www.w3.org/2000/svg">
<path d="M51.2461 32H46.8076V9.5H51.2461V32ZM49.4297 23.6064C49.4297 22.1025 49.6738 20.7695 50.1621 19.6074C50.6602 18.4453 51.3584 17.5322 52.2568 16.8682C53.1553 16.1943 54.2051 15.8574 55.4062 15.8574C56.4512 15.8574 57.3643 16.0625 58.1455 16.4727C58.9365 16.873 59.5518 17.5273 59.9912 18.4355C60.4404 19.334 60.665 20.54 60.665 22.0537V32H56.2266V22.0244C56.2266 21.3604 56.1289 20.8428 55.9336 20.4717C55.748 20.0908 55.4697 19.8271 55.0986 19.6807C54.7373 19.5244 54.293 19.4463 53.7656 19.4463C53.1797 19.4463 52.6865 19.5488 52.2861 19.7539C51.8857 19.9492 51.5586 20.2324 51.3047 20.6035C51.0605 20.9746 50.8848 21.4141 50.7773 21.9219C50.6699 22.4199 50.6162 22.9619 50.6162 23.5479L49.4297 23.6064ZM72.252 21.4385C72.252 20.7256 72.0762 20.1592 71.7246 19.7393C71.373 19.3193 70.8115 19.1094 70.04 19.1094C69.6006 19.1094 69.2197 19.1826 68.8975 19.3291C68.5752 19.4756 68.3311 19.6855 68.165 19.959C67.999 20.2227 67.916 20.5498 67.916 20.9404H63.4922C63.4922 20.0029 63.7705 19.1533 64.3271 18.3916C64.8838 17.6201 65.6699 17.0049 66.6855 16.5459C67.7012 16.0869 68.8975 15.8574 70.2744 15.8574C71.5049 15.8574 72.6035 16.0674 73.5703 16.4873C74.5371 16.8975 75.2988 17.5176 75.8555 18.3477C76.4121 19.1777 76.6904 20.2178 76.6904 21.4678V28.0889C76.6904 29.0264 76.7441 29.7686 76.8516 30.3154C76.9688 30.8623 77.1299 31.3408 77.335 31.751V32H72.8818C72.667 31.5508 72.5059 30.9893 72.3984 30.3154C72.3008 29.6416 72.252 28.958 72.252 28.2646V21.4385ZM72.8525 24.8516H70.5967C69.5225 24.8516 68.7461 25.0859 68.2676 25.5547C67.7891 26.0137 67.5498 26.5703 67.5498 27.2246C67.5498 27.7227 67.7256 28.1328 68.0771 28.4551C68.4287 28.7773 68.9023 28.9385 69.498 28.9385C70.1133 28.9385 70.6406 28.8213 71.0801 28.5869C71.5293 28.3428 71.8711 28.0547 72.1055 27.7227C72.3496 27.3809 72.4668 27.0684 72.457 26.7852L73.5996 28.6895C73.4434 29.0801 73.2334 29.4854 72.9697 29.9053C72.7158 30.3252 72.3887 30.7158 71.9883 31.0771C71.5879 31.4385 71.0996 31.7314 70.5234 31.9561C69.957 32.1807 69.2881 32.293 68.5166 32.293C67.5205 32.293 66.6123 32.0928 65.792 31.6924C64.9717 31.2822 64.3223 30.7207 63.8438 30.0078C63.3652 29.2852 63.126 28.46 63.126 27.5322C63.126 25.8721 63.7412 24.5879 64.9717 23.6797C66.2021 22.7617 68.0332 22.3027 70.4648 22.3027H72.8232L72.8525 24.8516ZM92.5693 32H80.5137V28.4404H92.5693V32ZM82.3008 32H79.3418V29.3486L89.3613 16.1504H92.3496V18.7285L82.3008 32ZM90.8115 19.71H79.5762V16.1504H90.8115V19.71ZM103.658 21.4385C103.658 20.7256 103.482 20.1592 103.131 19.7393C102.779 19.3193 102.218 19.1094 101.446 19.1094C101.007 19.1094 100.626 19.1826 100.304 19.3291C99.9814 19.4756 99.7373 19.6855 99.5713 19.959C99.4053 20.2227 99.3223 20.5498 99.3223 20.9404H94.8984C94.8984 20.0029 95.1768 19.1533 95.7334 18.3916C96.29 17.6201 97.0762 17.0049 98.0918 16.5459C99.1074 16.0869 100.304 15.8574 101.681 15.8574C102.911 15.8574 104.01 16.0674 104.977 16.4873C105.943 16.8975 106.705 17.5176 107.262 18.3477C107.818 19.1777 108.097 20.2178 108.097 21.4678V28.0889C108.097 29.0264 108.15 29.7686 108.258 30.3154C108.375 30.8623 108.536 31.3408 108.741 31.751V32H104.288C104.073 31.5508 103.912 30.9893 103.805 30.3154C103.707 29.6416 103.658 28.958 103.658 28.2646V21.4385ZM104.259 24.8516H102.003C100.929 24.8516 100.152 25.0859 99.6738 25.5547C99.1953 26.0137 98.9561 26.5703 98.9561 27.2246C98.9561 27.7227 99.1318 28.1328 99.4834 28.4551C99.835 28.7773 100.309 28.9385 100.904 28.9385C101.52 28.9385 102.047 28.8213 102.486 28.5869C102.936 28.3428 103.277 28.0547 103.512 27.7227C103.756 27.3809 103.873 27.0684 103.863 26.7852L105.006 28.6895C104.85 29.0801 104.64 29.4854 104.376 29.9053C104.122 30.3252 103.795 30.7158 103.395 31.0771C102.994 31.4385 102.506 31.7314 101.93 31.9561C101.363 32.1807 100.694 32.293 99.9229 32.293C98.9268 32.293 98.0186 32.0928 97.1982 31.6924C96.3779 31.2822 95.7285 30.7207 95.25 30.0078C94.7715 29.2852 94.5322 28.46 94.5322 27.5322C94.5322 25.8721 95.1475 24.5879 96.3779 23.6797C97.6084 22.7617 99.4395 22.3027 101.871 22.3027H104.229L104.259 24.8516ZM115.685 32H111.261V16.1504H115.421L115.685 19.7979V32ZM120.313 20.3105C120.099 20.2812 119.845 20.2568 119.552 20.2373C119.259 20.208 118.995 20.1934 118.761 20.1934C117.989 20.1934 117.354 20.3154 116.856 20.5596C116.358 20.7939 115.987 21.1455 115.743 21.6143C115.499 22.083 115.367 22.6641 115.348 23.3574L114.483 22.9766C114.483 21.5996 114.659 20.374 115.011 19.2998C115.362 18.2256 115.88 17.3857 116.563 16.7803C117.247 16.165 118.077 15.8574 119.054 15.8574C119.278 15.8574 119.513 15.8721 119.757 15.9014C120.011 15.9307 120.216 15.9795 120.372 16.0479L120.313 20.3105ZM131.593 9.5H136.046V32H132.047L131.593 28.4697V9.5ZM121.646 23.958C121.646 22.3467 121.886 20.9355 122.364 19.7246C122.853 18.5039 123.556 17.5566 124.474 16.8828C125.401 16.1992 126.529 15.8574 127.857 15.8574C129.098 15.8574 130.133 16.2139 130.963 16.9268C131.803 17.6299 132.462 18.5967 132.94 19.8271C133.429 21.0479 133.766 22.4346 133.951 23.9873V24.3535C133.766 25.8281 133.429 27.166 132.94 28.3672C132.462 29.5684 131.803 30.5254 130.963 31.2383C130.133 31.9414 129.088 32.293 127.828 32.293C126.52 32.293 125.401 31.9463 124.474 31.2529C123.556 30.5498 122.853 29.5928 122.364 28.3818C121.886 27.1709 121.646 25.7988 121.646 24.2656V23.958ZM126.07 24.2656C126.07 25.0859 126.163 25.833 126.349 26.5068C126.534 27.1807 126.837 27.7178 127.257 28.1182C127.677 28.5088 128.243 28.7041 128.956 28.7041C129.659 28.7041 130.235 28.5479 130.685 28.2354C131.134 27.9131 131.476 27.4688 131.71 26.9023C131.944 26.3359 132.081 25.6816 132.12 24.9395V23.416C132.101 22.7812 132.018 22.2197 131.871 21.7314C131.734 21.2334 131.539 20.8184 131.285 20.4863C131.041 20.1445 130.724 19.8857 130.333 19.71C129.952 19.5342 129.503 19.4463 128.985 19.4463C128.282 19.4463 127.716 19.6465 127.286 20.0469C126.856 20.4375 126.544 20.9746 126.349 21.6582C126.163 22.332 126.07 23.0986 126.07 23.958V24.2656Z" fill="#171724"/>
<path fill-rule="evenodd" clip-rule="evenodd" d="M31.1698 0.128625C26.7326 0.689227 22.5308 2.60285 19.4076 5.48535L18.713 6.12642L18.1012 5.60118C16.5562 4.27489 14.5853 3.25959 12.5418 2.73738C11.6944 2.52082 11.5085 2.50302 10.0834 2.50253C8.43257 2.50195 7.75573 2.59645 6.50005 3.003C5.54805 3.31119 3.97028 4.10386 3.04169 4.74042C2.27494 5.26608 0 7.24311 0 7.3838C0 7.50635 2.23052 9.45706 2.95836 9.97106C4.31912 10.9321 6.17005 11.7493 7.79173 12.1054C8.73866 12.3132 10.6531 12.3523 11.6769 12.1848C12.5046 12.0492 13.8931 11.6622 14.3335 11.4443C14.9306 11.1486 14.9407 11.1727 14.5476 11.9561C13.5879 13.8684 12.7645 16.8478 12.611 18.9636C12.5826 19.3549 12.5324 19.7182 12.4993 19.7708C12.4663 19.8234 12.1248 19.9201 11.7405 19.9858C9.46433 20.374 7.22198 21.5728 5.56446 23.2874C3.56203 25.3587 2.49944 27.977 2.50035 30.8377C2.50135 33.9011 3.63561 36.5686 5.87005 38.7623C7.61606 40.4766 9.563 41.4632 12.0418 41.8898C13.1459 42.0799 15.0841 42.0009 16.2332 41.719C17.046 41.5196 18.1316 41.122 18.8543 40.759L19.1817 40.5946L18.7305 40.1284C16.1683 37.4805 14.7477 33.4589 15.0814 29.7979C15.3082 27.309 16.0161 25.3254 17.4039 23.289C17.7239 22.8196 18.2552 22.1488 18.5846 21.7983L19.1835 21.1611L18.4877 20.8404C17.5839 20.424 16.7199 20.1421 15.8061 19.9655L15.0704 19.8234L15.1234 19.3248C15.5981 14.8572 17.4504 10.983 20.5936 7.88361C22.4719 6.03159 24.5729 4.67832 27.0556 3.72151C27.9509 3.37641 29.7515 2.87807 30.5087 2.76577L30.8088 2.7213L30.4117 3.31423C29.1397 5.21333 28.2047 7.55426 27.7382 10.0078C27.5721 10.8817 27.5563 11.279 27.5238 15.4012L27.4887 19.8513L27.307 19.8868C27.207 19.9064 26.8815 19.9645 26.5836 20.016C25.135 20.2661 23.2549 21.0885 21.9818 22.0291C18.1748 24.8415 16.5725 29.7459 18.0097 34.1867C18.5901 35.9801 19.4701 37.3877 20.8702 38.7623C23.048 40.9005 25.724 42 28.7502 42C31.7854 42 34.4305 40.9124 36.631 38.7598C38.8611 36.5781 39.999 33.9024 40 30.8377C40.0009 27.977 38.9383 25.3587 36.9359 23.2874C36.0596 22.3808 35.0751 21.6434 34.0084 21.0943C33.1182 20.636 31.7557 20.1607 30.9169 20.016C30.619 19.9645 30.2874 19.9049 30.18 19.8836L29.9848 19.8446L30.0223 15.726C30.0625 11.3063 30.0923 10.9335 30.5456 9.17331C31.0742 7.12048 32.2427 4.86724 33.6263 3.23252C33.89 2.92097 34.7097 2.06612 35.4479 1.33301L36.7901 0L34.416 0.0091875C32.9749 0.0148477 31.6992 0.0617695 31.1698 0.128625ZM13.7501 25.9102V27.129L13.238 27.1816C11.6797 27.342 10.193 28.8029 10.0305 30.3338L9.97633 30.8438H8.73224H7.48806L7.5434 30.3721C7.7774 28.3785 8.67949 26.8602 10.2776 25.7708C11.0723 25.229 11.9152 24.9295 13.1668 24.7446C13.7995 24.651 13.7501 24.5522 13.7501 25.9102ZM28.7502 25.9102V27.129L28.2382 27.1816C26.6798 27.342 25.1931 28.8029 25.0306 30.3338L24.9765 30.8438H23.7324H22.4882L22.5435 30.3721C22.7775 28.3785 23.6796 26.8602 25.2777 25.7708C26.0724 25.229 26.9153 24.9295 28.1669 24.7446C28.7997 24.651 28.7502 24.5522 28.7502 25.9102Z" fill="#6B39BD"/>
</svg>
